# xmcd
#
# Track frame offsets: 
#        150
#        14335
#        21837
#        32612
#        39430
#        49090
#        59580
#        70770
#        83022
#        96332
#        112785
#        119995
#
# Disc length: 1696 seconds
#
# Revision: 5
# Processed by: cddbd v1.5.2PL0 Copyright (c) Steve Scherf et al.
# Submitted via: ExactAudioCopyFreeDBPlugin 1.0
#
DISCID=9b069e0c
DTITLE=Various Artist - The Rat Pack
DYEAR=2001
DGENRE=Jazz
TTITLE0=Dean Martin - I Left My Heart In San Francisco
TTITLE1=Dean Martin - I'm Gonna Sit Right Down And Write Myself A Lett
TTITLE1=er
TTITLE2=Dean Martin - Medley: Volare - On An Evening In Roma
TTITLE3=Frank Sinatra - Goody Goody
TTITLE4=Frank Sinatra - Chicago
TTITLE5=Frank Sinatra - When Your Lover Has Gone
TTITLE6=Frank Sinatra - Please Be Kind
TTITLE7=Frank Sinatra - You're Nobody Till Somebody Loves You
TTITLE8=Sammy Davis Jr. - What Kind Of Fool Am I
TTITLE9=Sammy Davis Jr. - Out Of This World
TTITLE10=Sammy Davis Jr. - She's Funny That Way
TTITLE11=Sammy Davis Jr. - Hey There
EXTD=ID3G: 96
EXTT0=
EXTT1=
EXTT2=
EXTT3=
EXTT4=
EXTT5=
EXTT6=
EXTT7=
EXTT8=
EXTT9=
EXTT10=
EXTT11=
PLAYORDER=
